<?xml version="1.0" encoding="iso-8859-1"?>
<!-- Generator: Adobe Illustrator 21.1.0, SVG Export Plug-In . SVG Version: 6.00 Build 0)  -->
<svg version="1.1" id="Layer_1" xmlns="http://www.w3.org/2000/svg" xmlns:xlink="http://www.w3.org/1999/xlink" x="0px" y="0px"
	 viewBox="0 0 100.355 100.352" style="enable-background:new 0 0 100.355 100.352;" xml:space="preserve">
<path d="M67.33,48.847h23.008c0.828,0,1.5-0.671,1.5-1.5s-0.672-1.5-1.5-1.5H67.33V35.061h23.008c0.828,0,1.5-0.671,1.5-1.5
	s-0.672-1.5-1.5-1.5H67.33V11.196c0-0.829-0.672-1.5-1.5-1.5s-1.5,0.671-1.5,1.5v20.865H9.665c-0.398,0-0.78,0.158-1.062,0.44
	c-0.281,0.282-0.439,0.664-0.438,1.062L8.187,47.13c-0.01,0.071-0.022,0.142-0.022,0.217c0,0.077,0.011,0.15,0.023,0.224
	L8.209,60.79c-0.026,0.111-0.044,0.226-0.044,0.345c0,0.121,0.018,0.236,0.045,0.349l0.021,13.02
	c-0.039,0.133-0.066,0.271-0.066,0.416c0,0.147,0.028,0.286,0.067,0.421l0.022,13.464c0.001,0.828,0.673,1.498,1.5,1.498
	c0,0,0.001,0,0.002,0l11.012-0.013c0.043,0.004,0.085,0.013,0.13,0.013c0.045,0,0.088-0.009,0.133-0.013l69.31-0.082
	c0.828-0.001,1.499-0.674,1.498-1.502c-0.001-0.829-0.688-1.52-1.502-1.498l-67.939,0.081V76.42h67.941c0.828,0,1.5-0.672,1.5-1.5
	s-0.672-1.5-1.5-1.5H22.397V62.635h23.668c0.733,5.186,5.188,9.191,10.573,9.191c5.385,0,9.84-4.006,10.574-9.191h23.127
	c0.828,0,1.5-0.672,1.5-1.5s-0.672-1.5-1.5-1.5H67.255c0.045-0.142,0.076-0.29,0.076-0.447V48.847z M64.33,45.847H22.397V35.061
	H64.33V45.847z M19.397,35.061v10.786h-8.212l-0.017-10.786H19.397z M11.19,48.847h8.207v10.788h-8.19L11.19,48.847z M19.397,87.291
	l-8.146,0.01L11.234,76.42h8.163V87.291z M19.397,73.42h-8.168l-0.017-10.785h8.185V73.42z M22.397,48.847H64.33v4.881
	c-1.946-2.02-4.672-3.284-7.692-3.284c-5.384,0-9.839,4.006-10.573,9.191H22.397V48.847z M56.638,68.826
	c-4.24,0-7.69-3.45-7.69-7.691s3.45-7.691,7.69-7.691c4.241,0,7.691,3.45,7.691,7.691S60.879,68.826,56.638,68.826z"/>
</svg>
